<mxfile host="65bd71144e" scale="2" border="50">
    <diagram id="nWb-57sRR0OsOPdA4YfA" name="Page-1">
        <mxGraphModel dx="519" dy="377" grid="1" gridSize="10" guides="1" tooltips="1" connect="1" arrows="1" fold="1" page="1" pageScale="1" pageWidth="850" pageHeight="1100" background="#FFFFFF" math="0" shadow="0">
            <root>
                <mxCell id="0"/>
                <mxCell id="1" parent="0"/>
                <mxCell id="29" style="edgeStyle=none;html=1;" edge="1" parent="1" source="2" target="15">
                    <mxGeometry relative="1" as="geometry"/>
                </mxCell>
                <mxCell id="2" value="ForceMove" style="rounded=1;whiteSpace=wrap;html=1;arcSize=3;" parent="1" vertex="1">
                    <mxGeometry x="600" y="240" width="120" height="39" as="geometry"/>
                </mxCell>
                <mxCell id="30" style="edgeStyle=none;html=1;" edge="1" parent="1" source="12" target="17">
                    <mxGeometry relative="1" as="geometry"/>
                </mxCell>
                <mxCell id="12" value="IMultyAssetHolder" style="rounded=1;whiteSpace=wrap;html=1;arcSize=3;dashed=1;strokeColor=#FFB366;" vertex="1" parent="1">
                    <mxGeometry x="120" y="160" width="120" height="39" as="geometry"/>
                </mxCell>
                <mxCell id="34" style="html=1;dashed=1;" edge="1" parent="1" source="14" target="17">
                    <mxGeometry relative="1" as="geometry"/>
                </mxCell>
                <mxCell id="37" style="edgeStyle=none;html=1;dashed=1;" edge="1" parent="1" source="14" target="15">
                    <mxGeometry relative="1" as="geometry"/>
                </mxCell>
                <mxCell id="14" value="Outcome" style="rounded=1;whiteSpace=wrap;html=1;arcSize=50;strokeColor=#999999;dashed=1;dashPattern=1 2;" vertex="1" parent="1">
                    <mxGeometry x="440" y="160" width="120" height="39" as="geometry"/>
                </mxCell>
                <mxCell id="15" value="NitroAdjudicator" style="rounded=1;whiteSpace=wrap;html=1;arcSize=3;strokeWidth=2;strokeColor=#0000FF;" vertex="1" parent="1">
                    <mxGeometry x="440" y="320" width="120" height="39" as="geometry"/>
                </mxCell>
                <mxCell id="28" style="edgeStyle=none;html=1;" edge="1" parent="1" source="17" target="15">
                    <mxGeometry relative="1" as="geometry"/>
                </mxCell>
                <mxCell id="17" value="MultyAssetHolder" style="rounded=1;whiteSpace=wrap;html=1;arcSize=3;" vertex="1" parent="1">
                    <mxGeometry x="280" y="240" width="120" height="39" as="geometry"/>
                </mxCell>
                <mxCell id="32" style="edgeStyle=orthogonalEdgeStyle;curved=1;html=1;dashed=1;" edge="1" parent="1" source="20" target="17">
                    <mxGeometry relative="1" as="geometry"/>
                </mxCell>
                <mxCell id="20" value="SafeMath" style="rounded=1;whiteSpace=wrap;html=1;arcSize=50;strokeColor=#999999;dashed=1;dashPattern=1 2;" vertex="1" parent="1">
                    <mxGeometry x="280" y="160" width="120" height="39" as="geometry"/>
                </mxCell>
                <mxCell id="33" style="edgeStyle=orthogonalEdgeStyle;curved=1;html=1;entryX=0.75;entryY=0;entryDx=0;entryDy=0;" edge="1" parent="1" source="21" target="17">
                    <mxGeometry relative="1" as="geometry">
                        <Array as="points">
                            <mxPoint x="420" y="99"/>
                            <mxPoint x="420" y="220"/>
                            <mxPoint x="370" y="220"/>
                        </Array>
                    </mxGeometry>
                </mxCell>
                <mxCell id="38" style="edgeStyle=orthogonalEdgeStyle;html=1;curved=1;entryX=0.25;entryY=0;entryDx=0;entryDy=0;" edge="1" parent="1" source="21" target="2">
                    <mxGeometry relative="1" as="geometry">
                        <Array as="points">
                            <mxPoint x="580" y="99"/>
                            <mxPoint x="580" y="220"/>
                            <mxPoint x="630" y="220"/>
                        </Array>
                    </mxGeometry>
                </mxCell>
                <mxCell id="21" value="StatusManager" style="rounded=1;whiteSpace=wrap;html=1;arcSize=3;" vertex="1" parent="1">
                    <mxGeometry x="440" y="80" width="120" height="39" as="geometry"/>
                </mxCell>
                <mxCell id="27" style="edgeStyle=none;html=1;" edge="1" parent="1" source="23" target="21">
                    <mxGeometry relative="1" as="geometry"/>
                </mxCell>
                <mxCell id="23" value="IStatusManager" style="rounded=1;whiteSpace=wrap;html=1;arcSize=3;dashed=1;strokeColor=#FFB366;" vertex="1" parent="1">
                    <mxGeometry x="440" width="120" height="39" as="geometry"/>
                </mxCell>
                <mxCell id="35" style="edgeStyle=none;html=1;dashed=1;" edge="1" parent="1" source="24" target="2">
                    <mxGeometry relative="1" as="geometry"/>
                </mxCell>
                <mxCell id="24" value="IForceMoveApp" style="rounded=1;whiteSpace=wrap;html=1;arcSize=3;dashed=1;strokeColor=#FFB366;" vertex="1" parent="1">
                    <mxGeometry x="600" y="160" width="120" height="39" as="geometry"/>
                </mxCell>
                <mxCell id="36" style="edgeStyle=none;html=1;" edge="1" parent="1" source="25" target="2">
                    <mxGeometry relative="1" as="geometry"/>
                </mxCell>
                <mxCell id="25" value="IForceMove" style="rounded=1;whiteSpace=wrap;html=1;arcSize=3;dashed=1;strokeColor=#FFB366;" vertex="1" parent="1">
                    <mxGeometry x="760" y="160" width="120" height="39" as="geometry"/>
                </mxCell>
                <mxCell id="31" style="edgeStyle=orthogonalEdgeStyle;html=1;curved=1;entryX=0.25;entryY=0;entryDx=0;entryDy=0;dashed=1;" edge="1" parent="1" source="26" target="17">
                    <mxGeometry relative="1" as="geometry">
                        <Array as="points">
                            <mxPoint x="260" y="220"/>
                            <mxPoint x="310" y="220"/>
                        </Array>
                    </mxGeometry>
                </mxCell>
                <mxCell id="26" value="IERC20" style="rounded=1;whiteSpace=wrap;html=1;arcSize=3;dashed=1;strokeColor=#FFB366;" vertex="1" parent="1">
                    <mxGeometry x="200" y="80" width="120" height="39" as="geometry"/>
                </mxCell>
            </root>
        </mxGraphModel>
    </diagram>
</mxfile>